<?xml version="1.0" encoding="UTF-8"?>
<!-- FOCUS 旗マーク（ベクター正本）。出典: Claude Designプロジェクト uploads/Logo.svg（色定義を補完し、viewBoxを実寸にトリミング）。紺 #143778 / オレンジ #E67832 はロゴ不変色 -->
<svg xmlns="http://www.w3.org/2000/svg" viewBox="527 170 206 258">
<path fill="#143778" d="M640.9,195.9c-36.8-10.1-68.2-2.3-80.1,1.5l.7-7.5c2.7-1.8,4.4-4.9,4.4-8.4,0-5.7-4.6-10.3-10.3-10.3s-10.3,4.6-10.3,10.3,1.3,5.7,3.4,7.6l-20.3,232.5s0,0,0,0c-.2,2.7,2.4,5.1,5.9,5.4,3.5.3,6.5-1.6,6.7-4.3,0,0,0,0,0,0l3.9-44.3c8.2-17.6,30-40.9,80.1-55.9,58.6-17.6,74.3-43,74.3-43-9.8,3.3-54.2,9.5-78.3,2.6-24.1-6.9-48.6-2.7-48.6-2.7,34.1-28.7,71.2-36.6,71.2-36.6,70.7-21.5,88-49.8,88-49.8v-.3s-43.7,16.1-90.8,3.2Z"/>
<path fill="#E67832" d="M559,217.6s24.6-12.5,60.3-5.1c35.7,7.4,38.4,6,38.4,6,0,0-26.5,13.1-45.4,16.2,0,0-30.8,6.6-57.8,33.6l4.4-50.7Z"/>
<path fill="#E67832" d="M551.6,301.4s33.3-9.3,55.8-2.3c0,0,16.2,4.4,24.7,2.2,0,0-68.2,18.8-84.4,45l3.9-44.9Z"/>
</svg>
