<svg viewBox="-10 -10 749 938" xmlns="http://www.w3.org/2000/svg" fill="none" stroke="currentColor" stroke-width="2" stroke-linejoin="round" stroke-linecap="round" style="overflow:visible">
  <path vector-effect="non-scaling-stroke" d="M0.0,908.0 L0.0,887.5 C0.0,869.9 0.2,867.0 1.5,867.0 C2.8,867.0 3.0,864.4 3.0,849.6 C3.0,835.4 3.3,832.0 4.5,831.0 C5.7,830.0 6.0,826.8 6.0,814.5 C6.0,802.2 6.3,799.0 7.5,798.0 C8.7,797.0 9.0,793.8 9.0,781.5 C9.0,769.2 9.3,766.0 10.5,765.0 C11.7,764.0 12.0,760.7 12.0,747.0 C12.0,733.3 12.3,730.0 13.5,729.0 C14.7,728.0 15.0,724.8 15.0,712.5 C15.0,700.2 15.3,697.0 16.5,696.0 C17.7,695.0 18.0,691.7 18.0,678.0 C18.0,664.3 18.3,661.0 19.5,660.0 C20.7,659.0 21.0,655.8 21.0,643.5 C21.0,631.2 21.3,628.0 22.5,627.0 C23.7,626.0 24.0,622.7 24.0,609.0 C24.0,595.3 24.3,592.0 25.5,591.0 C26.7,590.0 27.0,586.8 27.0,574.5 C27.0,562.2 27.3,559.0 28.5,558.0 C29.7,557.0 30.0,553.8 30.0,541.5 C30.0,529.2 30.3,526.0 31.5,525.0 C32.7,524.0 33.0,520.7 33.0,507.0 C33.0,493.3 33.3,490.0 34.5,489.0 C35.7,488.0 36.0,484.8 36.0,472.5 C36.0,460.2 36.3,457.0 37.5,456.0 C38.7,455.0 39.0,451.7 39.0,438.0 C39.0,424.3 39.3,421.0 40.5,420.0 C41.7,419.0 42.0,415.8 42.0,403.5 C42.0,391.2 42.3,388.0 43.5,387.0 C44.7,386.0 45.0,382.7 45.0,369.0 C45.0,355.3 45.3,352.0 46.5,351.0 C47.7,350.0 48.0,346.8 48.0,334.5 C48.0,322.2 48.3,319.0 49.5,318.0 C50.7,317.0 51.0,313.7 51.0,300.0 C51.0,286.3 51.3,283.0 52.5,282.0 C53.7,281.0 54.0,277.8 54.0,265.5 C54.0,253.2 54.3,250.0 55.5,249.0 C56.7,248.0 57.0,244.8 57.0,232.5 C57.0,220.2 57.3,217.0 58.5,216.0 C59.7,215.0 60.0,211.7 60.0,198.0 C60.0,184.3 60.3,181.0 61.5,180.0 C62.7,179.0 63.0,175.8 63.0,163.5 C63.0,151.2 63.3,148.0 64.5,147.0 C65.7,146.0 66.0,142.7 66.0,129.0 C66.0,115.3 66.3,112.0 67.5,111.0 C68.7,110.0 69.0,106.8 69.0,94.5 C69.0,82.2 69.3,79.0 70.5,78.0 C71.4,77.2 72.0,75.0 72.0,72.1 C72.0,67.9 71.6,67.0 67.5,63.0 C64.9,60.4 63.0,57.7 63.0,56.4 C63.0,55.2 62.3,54.0 61.5,53.6 C59.3,52.8 59.3,28.8 61.5,27.0 C62.3,26.3 63.0,24.3 63.0,22.6 C63.0,20.0 64.3,18.2 69.8,12.7 C73.5,9.0 77.3,6.0 78.2,6.0 C79.0,6.0 80.3,5.3 81.0,4.5 C81.8,3.5 84.1,3.0 87.6,3.0 C91.7,3.0 93.0,2.6 93.0,1.5 C93.0,0.4 94.2,0.0 97.5,0.0 C100.8,0.0 102.0,0.4 102.0,1.5 C102.0,2.6 103.3,3.0 107.4,3.0 C110.9,3.0 113.2,3.5 114.0,4.5 C114.7,5.3 116.0,6.0 116.9,6.0 C119.3,6.0 132.0,19.1 132.0,21.7 C132.0,22.8 132.7,24.0 133.5,24.4 C135.7,25.2 135.7,52.8 133.5,53.6 C132.7,54.0 132.0,55.2 132.0,56.4 C132.0,57.7 129.7,60.9 126.0,64.5 L120.0,70.4 L120.0,78.1 C120.0,83.8 119.6,86.1 118.5,87.0 C117.6,87.7 117.0,89.3 117.2,90.4 C117.6,93.1 124.0,93.9 126.0,91.6 C126.7,90.7 128.7,90.0 130.5,90.0 C132.3,90.0 134.3,89.3 135.0,88.5 C135.8,87.6 138.0,87.0 141.0,87.0 C144.0,87.0 146.2,86.4 147.0,85.5 C147.9,84.5 150.2,84.0 154.5,84.0 C158.8,84.0 161.1,83.5 162.0,82.5 C162.9,81.5 165.2,81.0 169.5,81.0 C173.8,81.0 176.1,80.5 177.0,79.5 C177.9,78.4 180.3,78.0 186.0,78.0 C191.7,78.0 194.1,77.6 195.0,76.5 C196.0,75.3 198.8,75.0 208.5,75.0 C218.2,75.0 221.0,74.7 222.0,73.5 C223.1,72.2 229.5,72.0 268.5,72.0 C307.5,72.0 313.9,72.2 315.0,73.5 C316.0,74.7 318.8,75.0 328.5,75.0 C338.2,75.0 341.0,75.3 342.0,76.5 C342.9,77.6 345.3,78.0 351.0,78.0 C356.7,78.0 359.1,78.4 360.0,79.5 C360.9,80.5 363.2,81.0 367.5,81.0 C371.8,81.0 374.1,81.5 375.0,82.5 C375.9,83.5 378.2,84.0 382.5,84.0 C386.8,84.0 389.1,84.5 390.0,85.5 C390.8,86.4 393.0,87.0 396.0,87.0 C399.0,87.0 401.2,87.6 402.0,88.5 C402.7,89.3 404.7,90.0 406.5,90.0 C408.3,90.0 410.3,90.7 411.0,91.5 C411.9,92.5 414.2,93.0 418.5,93.0 C422.8,93.0 425.1,93.5 426.0,94.5 C426.8,95.4 429.0,96.0 432.0,96.0 C435.0,96.0 437.2,96.6 438.0,97.5 C438.9,98.6 441.3,99.0 447.0,99.0 C452.7,99.0 455.1,99.4 456.0,100.5 C456.9,101.6 459.5,102.0 466.5,102.0 C473.5,102.0 476.1,102.4 477.0,103.5 C478.0,104.7 481.3,105.0 495.0,105.0 C508.7,105.0 512.0,105.3 513.0,106.5 C514.9,108.7 565.1,108.7 567.0,106.5 C568.0,105.3 571.5,105.0 586.5,105.0 C601.5,105.0 605.0,104.7 606.0,103.5 C607.0,102.3 609.7,102.0 618.0,102.0 C626.3,102.0 629.0,101.7 630.0,100.5 C630.9,99.4 633.3,99.0 639.0,99.0 C644.7,99.0 647.1,98.6 648.0,97.5 C648.9,96.5 651.2,96.0 655.5,96.0 C659.8,96.0 662.1,95.5 663.0,94.5 C663.9,93.5 666.2,93.0 670.5,93.0 C674.8,93.0 677.1,92.5 678.0,91.5 C678.8,90.6 681.0,90.0 684.0,90.0 C687.0,90.0 689.2,89.4 690.0,88.5 C690.7,87.7 692.7,87.0 694.5,87.0 C696.3,87.0 698.3,86.3 699.0,85.5 C699.8,84.6 702.0,84.0 705.0,84.0 C708.0,84.0 710.2,83.4 711.0,82.5 C711.7,81.7 713.7,81.0 715.5,81.0 C717.3,81.0 719.3,80.3 720.0,79.5 C720.7,78.6 722.9,78.0 725.1,78.0 C728.6,78.0 729.0,78.3 729.0,80.5 C729.0,82.1 727.5,84.3 724.5,87.1 C722.0,89.4 720.0,92.0 720.0,92.9 C720.0,94.9 695.0,120.0 693.0,120.0 C692.1,120.0 688.1,123.4 684.0,127.5 C679.9,131.6 675.8,135.0 675.0,135.0 C674.1,135.0 671.4,137.0 669.0,139.5 C666.6,142.0 663.9,144.0 663.0,144.0 C662.1,144.0 659.4,146.0 657.0,148.5 C654.6,151.0 651.9,153.0 651.0,153.0 C650.1,153.0 648.1,154.3 646.5,156.0 C644.9,157.7 642.9,159.0 641.9,159.0 C641.0,159.0 639.7,159.7 639.0,160.5 C638.3,161.3 637.0,162.0 636.1,162.0 C635.1,162.0 633.1,163.3 631.5,165.0 C629.9,166.7 627.9,168.0 627.0,168.0 C626.1,168.0 624.1,169.4 622.5,171.0 C620.9,172.7 618.9,174.0 617.9,174.0 C617.0,174.0 615.7,174.7 615.0,175.5 C614.3,176.3 613.0,177.0 612.0,177.0 C611.0,177.0 609.7,177.7 609.0,178.5 C608.3,179.3 607.0,180.0 606.1,180.0 C605.1,180.0 603.1,181.3 601.5,183.0 C599.9,184.6 597.9,186.0 596.9,186.0 C596.0,186.0 594.7,186.7 594.0,187.5 C593.3,188.3 592.0,189.0 591.0,189.0 C590.0,189.0 588.7,189.7 588.0,190.5 C587.3,191.3 586.0,192.0 585.0,192.0 C584.0,192.0 582.7,192.7 582.0,193.5 C581.3,194.3 580.0,195.0 579.0,195.0 C578.0,195.0 576.7,195.7 576.0,196.5 C575.3,197.3 574.0,198.0 573.0,198.0 C572.0,198.0 570.7,198.7 570.0,199.5 C569.3,200.3 568.0,201.0 567.0,201.0 C566.0,201.0 564.7,201.7 564.0,202.5 C563.3,203.3 562.0,204.0 561.0,204.0 C560.0,204.0 558.7,204.7 558.0,205.5 C557.3,206.3 556.0,207.0 555.0,207.0 C554.0,207.0 552.7,207.7 552.0,208.5 C551.3,209.3 549.3,210.0 547.5,210.0 C545.7,210.0 543.7,210.7 543.0,211.5 C542.3,212.3 541.0,213.0 540.0,213.0 C539.0,213.0 537.7,213.7 537.0,214.5 C536.3,215.3 535.0,216.0 534.0,216.0 C533.0,216.0 531.7,216.7 531.0,217.5 C530.3,218.3 529.0,219.0 528.0,219.0 C527.0,219.0 525.7,219.7 525.0,220.5 C524.3,221.3 522.3,222.0 520.5,222.0 C518.7,222.0 516.7,222.7 516.0,223.5 C515.3,224.3 514.0,225.0 513.0,225.0 C512.0,225.0 510.7,225.7 510.0,226.5 C509.3,227.3 507.3,228.0 505.5,228.0 C503.7,228.0 501.7,228.7 501.0,229.5 C500.3,230.3 499.0,231.0 498.0,231.0 C497.0,231.0 495.7,231.7 495.0,232.5 C494.3,233.3 492.3,234.0 490.5,234.0 C488.7,234.0 486.7,234.7 486.0,235.5 C485.3,236.3 483.3,237.0 481.5,237.0 C479.7,237.0 477.7,237.7 477.0,238.5 C476.3,239.3 475.0,240.0 474.0,240.0 C473.0,240.0 471.7,240.7 471.0,241.5 C470.3,242.3 468.3,243.0 466.5,243.0 C464.7,243.0 462.7,243.7 462.0,244.5 C461.3,245.3 459.3,246.0 457.5,246.0 C455.7,246.0 453.7,246.7 453.0,247.5 C452.3,248.3 450.3,249.0 448.5,249.0 C446.7,249.0 444.7,249.7 444.0,250.5 C443.3,251.3 441.3,252.0 439.5,252.0 C437.7,252.0 435.7,252.7 435.0,253.5 C434.3,254.3 432.3,255.0 430.5,255.0 C428.7,255.0 426.7,255.7 426.0,256.5 C425.2,257.4 423.0,258.0 420.0,258.0 C417.0,258.0 414.8,258.6 414.0,259.5 C413.3,260.3 411.3,261.0 409.5,261.0 C407.7,261.0 405.7,261.7 405.0,262.5 C404.2,263.4 402.0,264.0 399.0,264.0 C396.0,264.0 393.8,264.6 393.0,265.5 C392.3,266.3 390.3,267.0 388.5,267.0 C386.7,267.0 384.7,267.7 384.0,268.5 C383.3,269.3 381.3,270.0 379.5,270.0 C377.7,270.0 375.7,270.7 375.0,271.5 C374.3,272.3 372.3,273.0 370.5,273.0 C368.7,273.0 366.7,273.7 366.0,274.5 C365.3,275.3 363.3,276.0 361.5,276.0 C359.7,276.0 357.7,276.7 357.0,277.5 C356.3,278.3 354.3,279.0 352.5,279.0 C350.7,279.0 348.7,279.7 348.0,280.5 C347.3,281.3 346.0,282.0 345.0,282.0 C344.0,282.0 342.7,282.7 342.0,283.5 C341.3,284.3 339.3,285.0 337.5,285.0 C335.7,285.0 333.7,285.7 333.0,286.5 C332.3,287.3 331.0,288.0 330.0,288.0 C329.0,288.0 327.7,288.7 327.0,289.5 C326.3,290.3 324.3,291.0 322.5,291.0 C320.7,291.0 318.7,291.7 318.0,292.5 C317.3,293.3 316.0,294.0 315.0,294.0 C314.0,294.0 312.7,294.7 312.0,295.5 C311.3,296.3 310.0,297.0 309.0,297.0 C308.0,297.0 306.7,297.7 306.0,298.5 C305.3,299.3 304.0,300.0 303.0,300.0 C302.0,300.0 300.7,300.7 300.0,301.5 C299.3,302.3 298.0,303.0 297.0,303.0 C296.0,303.0 294.7,303.7 294.0,304.5 C293.3,305.3 292.0,306.0 291.0,306.0 C290.0,306.0 288.7,306.7 288.0,307.5 C287.3,308.3 286.0,309.0 285.0,309.0 C284.0,309.0 282.7,309.7 282.0,310.5 C281.3,311.3 280.0,312.0 279.0,312.0 C278.0,312.0 276.7,312.7 276.0,313.5 C275.3,314.3 274.0,315.0 273.0,315.0 C272.0,315.0 270.7,315.7 270.0,316.5 C269.3,317.3 268.0,318.0 267.0,318.0 C266.0,318.0 264.7,318.7 264.0,319.5 C263.3,320.3 262.0,321.0 261.0,321.0 C260.0,321.0 258.7,321.7 258.0,322.5 C257.3,323.3 256.0,324.0 255.1,324.0 C254.1,324.0 252.1,325.4 250.5,327.0 C248.9,328.6 246.9,330.0 245.9,330.0 C245.0,330.0 243.7,330.7 243.0,331.5 C242.3,332.3 241.0,333.0 240.1,333.0 C239.1,333.0 237.1,334.3 235.5,336.0 C233.9,337.6 231.9,339.0 230.9,339.0 C230.0,339.0 228.7,339.7 228.0,340.5 C227.3,341.3 226.0,342.0 225.1,342.0 C224.1,342.0 222.1,343.4 220.5,345.0 C218.9,346.6 216.9,348.0 216.0,348.0 C215.1,348.0 213.1,349.4 211.5,351.0 C209.9,352.6 207.9,354.0 207.0,354.0 C206.1,354.0 203.4,356.0 201.0,358.5 C198.6,361.0 195.9,363.0 195.0,363.0 C194.1,363.0 192.1,364.4 190.5,366.0 C188.9,367.6 186.9,369.0 186.0,369.0 C185.2,369.0 181.8,371.7 178.5,375.0 C175.2,378.3 171.9,381.0 171.0,381.0 C169.1,381.1 165.0,384.4 165.0,385.9 C165.0,387.5 169.6,387.2 171.0,385.5 C172.9,383.2 271.1,383.2 273.0,385.5 C273.9,386.6 276.5,387.0 283.5,387.0 C290.5,387.0 293.1,387.4 294.0,388.5 C294.9,389.5 297.2,390.0 301.5,390.0 C305.8,390.0 308.1,390.5 309.0,391.5 C309.9,392.5 312.2,393.0 316.5,393.0 C320.8,393.0 323.1,393.5 324.0,394.5 C324.7,395.3 326.7,396.0 328.5,396.0 C330.3,396.0 332.3,396.7 333.0,397.5 C333.8,398.4 336.0,399.0 339.0,399.0 C342.0,399.0 344.2,399.6 345.0,400.5 C345.9,401.6 348.3,402.0 354.0,402.0 C359.7,402.0 362.1,402.4 363.0,403.5 C364.0,404.7 366.7,405.0 375.0,405.0 C383.3,405.0 386.0,405.3 387.0,406.5 C388.9,408.8 484.1,408.8 486.0,406.5 C487.0,405.3 490.2,405.0 502.5,405.0 C514.8,405.0 518.0,404.7 519.0,403.5 C520.0,402.3 522.8,402.0 532.5,402.0 C542.2,402.0 545.0,401.7 546.0,400.5 C546.9,399.4 549.3,399.0 555.0,399.0 C560.7,399.0 563.1,398.6 564.0,397.5 C564.9,396.4 567.3,396.0 573.0,396.0 C578.7,396.0 581.1,395.6 582.0,394.5 C582.9,393.5 585.2,393.0 589.5,393.0 C593.8,393.0 596.1,392.5 597.0,391.5 C597.8,390.5 600.0,390.0 603.2,390.0 C606.6,390.0 608.2,389.6 608.6,388.5 C609.0,387.7 609.8,387.0 610.6,387.0 C612.5,387.0 612.4,391.4 610.5,393.0 C609.7,393.7 609.0,395.0 609.0,395.9 C609.0,397.9 572.0,435.0 570.0,435.0 C569.1,435.0 565.8,437.7 562.5,441.0 C559.2,444.3 555.8,447.0 555.0,447.0 C554.1,447.0 552.1,448.4 550.5,450.0 C548.9,451.6 546.9,453.0 546.0,453.0 C545.1,453.0 543.1,454.4 541.5,456.0 C539.9,457.7 537.9,459.0 537.0,459.0 C536.1,459.0 534.1,460.4 532.5,462.0 C530.9,463.7 528.9,465.0 528.0,465.0 C527.1,465.0 525.1,466.4 523.5,468.0 C521.9,469.7 519.9,471.0 518.9,471.0 C518.0,471.0 516.7,471.7 516.0,472.5 C515.3,473.3 514.0,474.0 513.1,474.0 C512.1,474.0 510.1,475.4 508.5,477.0 C506.9,478.6 504.9,480.0 503.9,480.0 C503.0,480.0 501.7,480.7 501.0,481.5 C500.3,482.3 499.0,483.0 498.0,483.0 C497.0,483.0 495.7,483.7 495.0,484.5 C494.3,485.3 493.0,486.0 492.0,486.0 C491.0,486.0 489.7,486.7 489.0,487.5 C488.3,488.3 487.0,489.0 486.0,489.0 C485.0,489.0 483.7,489.7 483.0,490.5 C482.3,491.3 481.0,492.0 480.0,492.0 C479.0,492.0 477.7,492.7 477.0,493.5 C476.3,494.3 475.0,495.0 474.0,495.0 C473.0,495.0 471.7,495.7 471.0,496.5 C470.3,497.3 469.0,498.0 468.0,498.0 C467.0,498.0 465.7,498.7 465.0,499.5 C464.3,500.3 463.0,501.0 462.0,501.0 C461.0,501.0 459.7,501.7 459.0,502.5 C458.3,503.3 457.0,504.0 456.0,504.0 C455.0,504.0 453.7,504.7 453.0,505.5 C452.3,506.3 451.0,507.0 450.0,507.0 C449.0,507.0 447.7,507.7 447.0,508.5 C446.3,509.3 444.3,510.0 442.5,510.0 C440.7,510.0 438.7,510.7 438.0,511.5 C437.3,512.3 436.0,513.0 435.0,513.0 C434.0,513.0 432.7,513.7 432.0,514.5 C431.3,515.3 430.0,516.0 429.0,516.0 C428.0,516.0 426.7,516.7 426.0,517.5 C425.3,518.3 423.3,519.0 421.5,519.0 C419.7,519.0 417.7,519.7 417.0,520.5 C416.3,521.3 414.3,522.0 412.5,522.0 C410.7,522.0 408.7,522.7 408.0,523.5 C407.3,524.3 406.0,525.0 405.0,525.0 C404.0,525.0 402.7,525.7 402.0,526.5 C401.3,527.3 399.3,528.0 397.5,528.0 C395.7,528.0 393.7,528.7 393.0,529.5 C392.3,530.3 390.3,531.0 388.5,531.0 C386.7,531.0 384.7,531.7 384.0,532.5 C383.3,533.3 381.3,534.0 379.5,534.0 C377.7,534.0 375.7,534.7 375.0,535.5 C374.3,536.3 372.3,537.0 370.5,537.0 C368.7,537.0 366.7,537.7 366.0,538.5 C365.3,539.3 363.3,540.0 361.5,540.0 C359.7,540.0 357.7,540.7 357.0,541.5 C356.3,542.3 354.3,543.0 352.5,543.0 C350.7,543.0 348.7,543.7 348.0,544.5 C347.3,545.3 345.3,546.0 343.5,546.0 C341.7,546.0 339.7,546.7 339.0,547.5 C338.2,548.4 336.0,549.0 333.0,549.0 C330.0,549.0 327.8,549.6 327.0,550.5 C326.3,551.3 324.3,552.0 322.5,552.0 C320.7,552.0 318.7,552.7 318.0,553.5 C317.3,554.3 315.3,555.0 313.5,555.0 C311.7,555.0 309.7,555.7 309.0,556.5 C308.3,557.3 307.0,558.0 306.0,558.0 C305.0,558.0 303.7,558.7 303.0,559.5 C302.3,560.3 300.3,561.0 298.5,561.0 C296.7,561.0 294.7,561.7 294.0,562.5 C293.3,563.3 291.3,564.0 289.5,564.0 C287.7,564.0 285.7,564.7 285.0,565.5 C284.3,566.3 283.0,567.0 282.0,567.0 C281.0,567.0 279.7,567.7 279.0,568.5 C278.3,569.3 276.3,570.0 274.5,570.0 C272.7,570.0 270.7,570.7 270.0,571.5 C269.3,572.3 268.0,573.0 267.0,573.0 C266.0,573.0 264.7,573.7 264.0,574.5 C263.3,575.3 262.0,576.0 261.0,576.0 C260.0,576.0 258.7,576.7 258.0,577.5 C257.3,578.3 255.3,579.0 253.5,579.0 C251.7,579.0 249.7,579.7 249.0,580.5 C248.3,581.3 247.0,582.0 246.0,582.0 C245.0,582.0 243.7,582.7 243.0,583.5 C242.3,584.3 241.0,585.0 240.0,585.0 C239.0,585.0 237.7,585.7 237.0,586.5 C236.3,587.3 235.0,588.0 234.0,588.0 C233.0,588.0 231.7,588.7 231.0,589.5 C230.3,590.3 229.0,591.0 228.0,591.0 C227.0,591.0 225.7,591.7 225.0,592.5 C224.3,593.3 223.0,594.0 222.0,594.0 C221.0,594.0 219.7,594.7 219.0,595.5 C218.3,596.3 217.0,597.0 216.0,597.0 C215.0,597.0 213.7,597.7 213.0,598.5 C212.3,599.3 211.0,600.0 210.1,600.0 C209.1,600.0 207.1,601.4 205.5,603.0 C203.9,604.6 201.9,606.0 200.9,606.0 C200.0,606.0 198.7,606.7 198.0,607.5 C197.3,608.3 196.0,609.0 195.1,609.0 C194.1,609.0 192.1,610.4 190.5,612.0 C188.9,613.6 186.9,615.0 185.9,615.0 C185.0,615.0 183.7,615.7 183.0,616.5 C182.3,617.3 181.0,618.0 180.1,618.0 C179.1,618.0 177.1,619.4 175.5,621.0 C173.9,622.6 171.9,624.0 171.0,624.0 C170.1,624.0 167.4,626.0 165.0,628.5 C162.6,631.0 159.9,633.0 159.0,633.0 C158.1,633.0 155.4,635.0 153.0,637.5 C150.6,640.0 147.9,642.0 147.0,642.0 C146.1,642.0 142.8,644.7 139.5,648.0 C136.2,651.3 132.9,654.0 132.0,654.0 C130.0,654.0 99.0,685.0 99.0,687.0 C99.0,687.9 96.3,691.2 93.0,694.5 C89.7,697.8 87.0,701.1 87.0,702.0 C87.0,702.9 85.0,705.6 82.5,708.0 C80.0,710.4 78.0,713.1 78.0,714.0 C78.0,714.9 76.7,716.9 75.0,718.5 C73.3,720.1 72.0,722.2 72.0,723.2 C72.0,724.2 71.3,725.3 70.5,725.6 C69.7,726.0 69.0,727.3 69.0,728.6 C69.0,730.0 68.3,731.3 67.5,731.6 C66.7,732.0 66.0,733.3 66.0,734.6 C66.0,736.0 65.3,737.3 64.5,737.6 C63.7,738.0 63.0,739.2 63.0,740.5 C63.0,741.7 62.3,743.3 61.5,744.0 C60.3,745.0 60.0,747.8 60.0,757.5 C60.0,767.2 59.7,770.0 58.5,771.0 C57.3,772.0 57.0,775.3 57.0,789.0 C57.0,802.7 56.7,806.0 55.5,807.0 C54.3,808.0 54.0,811.2 54.0,823.5 C54.0,835.8 53.7,839.0 52.5,840.0 C51.3,841.0 51.0,844.3 51.0,858.0 C51.0,871.7 50.7,875.0 49.5,876.0 C48.3,877.0 48.0,880.0 48.0,891.2 C48.0,902.6 47.7,905.2 46.5,905.6 C45.7,906.0 45.0,907.2 45.0,908.4 L45.0,908.4 Z"/>
  <path vector-effect="non-scaling-stroke" d="M70.4,620.4 C70.7,617.2 71.5,607.6 72.1,599.1 C72.6,590.6 73.3,583.3 73.6,582.8 C73.9,582.3 74.4,578.0 74.6,573.2 C74.9,565.4 75.8,554.9 79.0,522.0 C79.5,516.2 80.2,508.4 80.5,504.5 C82.1,481.7 83.4,471.3 84.6,469.4 C85.4,468.0 87.7,466.8 91.2,466.1 C94.1,465.4 99.2,464.3 102.5,463.5 C109.7,461.9 123.3,459.2 127.5,458.6 C129.2,458.4 133.0,457.8 136.0,457.2 C166.2,451.7 210.7,448.8 232.0,451.0 C260.2,453.9 263.2,454.4 274.5,457.5 C301.1,464.9 331.7,470.0 349.7,470.0 C352.0,470.0 354.2,470.4 354.5,471.0 C355.2,472.1 353.0,473.1 344.5,475.5 C341.2,476.4 337.1,477.8 335.3,478.6 C333.6,479.4 331.5,480.0 330.7,480.0 C329.9,480.0 327.9,480.7 326.4,481.5 C324.8,482.3 322.8,483.0 321.9,483.0 C321.0,483.0 318.9,483.7 317.4,484.5 C315.8,485.3 313.8,486.0 312.9,486.0 C312.0,486.0 309.9,486.7 308.4,487.5 C306.8,488.3 304.7,489.0 303.8,489.0 C302.9,489.0 301.9,489.4 301.6,489.9 C301.3,490.4 299.5,491.1 297.6,491.4 C295.6,491.8 292.8,492.7 291.3,493.5 C289.8,494.3 288.0,495.0 287.3,495.0 C286.6,495.0 284.6,495.6 282.8,496.4 C281.0,497.2 277.9,498.5 275.8,499.4 C273.8,500.3 271.7,501.0 271.1,501.0 C270.5,501.0 269.2,501.5 268.2,502.0 C267.3,502.6 260.4,505.4 253.0,508.4 C240.1,513.6 236.7,515.0 225.5,519.9 C222.8,521.1 219.6,522.5 218.5,522.9 C209.6,526.7 160.3,551.6 159.0,553.1 C158.7,553.4 156.5,554.6 154.0,555.9 C146.7,559.7 131.4,569.7 117.0,580.4 C102.6,591.0 80.9,611.5 75.0,620.1 C70.2,627.2 69.6,627.3 70.4,620.4 Z"/>
  <path vector-effect="non-scaling-stroke" d="M94.4,346.6 C94.1,345.7 94.1,344.2 94.5,343.2 C94.9,342.3 95.3,337.7 95.6,333.0 C95.9,325.3 97.1,311.8 100.0,282.0 C100.5,276.2 101.2,267.7 101.5,263.0 C101.8,258.3 102.7,248.4 103.5,241.0 C104.3,233.6 105.2,222.8 105.5,217.1 C105.8,211.4 106.3,206.4 106.5,206.0 C106.7,205.7 107.4,197.8 108.0,188.5 C108.7,179.1 109.6,170.7 110.2,169.7 C112.2,165.9 137.0,157.0 161.0,151.5 C177.3,147.8 180.9,147.1 192.5,145.6 C229.4,140.7 269.4,140.9 300.5,146.0 C311.5,147.8 323.9,150.0 331.0,151.5 C339.3,153.2 357.2,156.8 376.0,160.4 C380.1,161.2 388.0,162.6 393.5,163.5 C399.0,164.4 407.1,165.8 411.5,166.5 C425.9,169.0 440.3,170.9 449.5,171.6 C454.4,171.9 458.6,172.3 458.8,172.5 C459.2,172.9 431.9,186.0 430.6,186.0 C430.4,186.0 427.3,187.3 423.8,188.8 C420.3,190.4 413.9,193.2 409.5,195.0 C405.1,196.8 400.1,198.8 398.5,199.5 C394.6,201.1 371.7,209.5 361.5,213.0 C353.2,215.8 347.8,217.5 337.5,220.5 C334.2,221.4 329.5,222.8 327.0,223.5 C324.5,224.2 318.9,225.5 314.5,226.5 C299.9,229.5 292.6,231.2 287.5,232.8 C279.5,235.2 264.7,240.1 262.5,241.0 C261.4,241.5 258.0,242.9 255.0,244.0 C252.0,245.1 248.6,246.5 247.5,247.0 C246.4,247.5 243.2,248.9 240.5,250.0 C223.3,257.4 200.2,269.0 197.2,271.8 C196.5,272.4 195.5,273.0 195.0,273.0 C193.6,273.0 177.1,283.1 163.5,292.3 C140.5,307.7 122.0,322.6 101.8,341.9 C96.4,347.0 94.9,348.0 94.4,346.6 Z"/>
</svg>